<?xml version="1.0" standalone="no"?><!DOCTYPE svg PUBLIC "-//W3C//DTD SVG 1.1//EN" "http://www.w3.org/Graphics/SVG/1.1/DTD/svg11.dtd"><svg t="1557122315198" class="icon" style="" viewBox="0 0 1024 1024" version="1.1" xmlns="http://www.w3.org/2000/svg" p-id="2199" xmlns:xlink="http://www.w3.org/1999/xlink" width="256" height="256"><defs><style type="text/css"></style></defs><path d="M512 512m-512 0a512 512 0 1 0 1024 0 512 512 0 1 0-1024 0Z" fill="#19be6b" p-id="2200" data-spm-anchor-id="a313x.7781069.0.i1" class="selected"></path><path d="M865.103448 459.034483H564.965517V158.896552c0-28.248276-24.717241-52.965517-52.965517-52.965518S459.034483 130.648276 459.034483 158.896552V459.034483H158.896552c-28.248276 0-52.965517 24.717241-52.965518 52.965517S130.648276 564.965517 158.896552 564.965517H459.034483v300.137931c0 28.248276 24.717241 52.965517 52.965517 52.965518s52.965517-24.717241 52.965517-52.965518V564.965517h300.137931c28.248276 0 52.965517-24.717241 52.965518-52.965517s-24.717241-52.965517-52.965518-52.965517z" fill="#FFFFFF" p-id="2201"></path></svg>